<svg xmlns="http://www.w3.org/2000/svg" xmlns:xlink="http://www.w3.org/1999/xlink" width="2380" zoomAndPan="magnify" viewBox="0 0 1784.88 1784.99993" height="2380" preserveAspectRatio="xMidYMid meet" version="1.0"><defs><clipPath id="a339a8c5b3"><path d="M 382 362 L 1340 362 L 1340 1417.671875 L 382 1417.671875 Z M 382 362 " clip-rule="nonzero"/></clipPath></defs><path fill="#4484ba" d="M 418.859375 375.273438 L 395.082031 479.265625 L 533.699219 1404.78125 L 1326.53125 1404.78125 L 1326.53125 1341.867188 L 418.859375 375.273438 " fill-opacity="1" fill-rule="nonzero"/><g clip-path="url(#a339a8c5b3)"><path fill="#040505" d="M 418.859375 375.273438 L 406.433594 372.460938 L 382.609375 476.398438 C 382.25 477.984375 382.199219 479.570312 382.402344 481.15625 L 521.070312 1406.726562 C 521.988281 1412.964844 527.359375 1417.570312 533.699219 1417.570312 L 1326.53125 1417.570312 C 1329.90625 1417.570312 1333.179688 1416.238281 1335.582031 1413.835938 C 1337.933594 1411.484375 1339.3125 1408.15625 1339.3125 1404.78125 L 1339.3125 1341.867188 C 1339.3125 1338.59375 1338.085938 1335.472656 1335.835938 1333.070312 L 428.214844 366.527344 C 424.945312 363.101562 420.085938 361.71875 415.535156 362.945312 C 410.984375 364.226562 407.457031 367.859375 406.433594 372.460938 L 418.859375 375.273438 L 409.554688 384.074219 L 1313.75 1346.929688 L 1313.75 1391.996094 L 544.691406 1391.996094 L 408.070312 479.773438 L 431.335938 378.140625 L 418.859375 375.273438 L 409.554688 384.074219 L 418.859375 375.273438 " fill-opacity="1" fill-rule="nonzero"/></g><path fill="#5698d8" d="M 1326.429688 1330.410156 C 1327.402344 1336.75 1323.003906 1341.867188 1316.613281 1341.867188 L 572.097656 1341.867188 C 565.757812 1341.867188 559.828125 1336.75 558.90625 1330.410156 L 418.859375 375.273438 C 417.9375 368.984375 422.335938 363.867188 428.625 363.867188 L 1166.800781 363.867188 C 1173.089844 363.867188 1179.019531 368.984375 1179.992188 375.273438 L 1326.429688 1330.410156 " fill-opacity="1" fill-rule="nonzero"/><path fill="#040505" d="M 1326.429688 1330.410156 L 1313.75 1332.351562 L 1315.078125 1332.148438 L 1313.75 1332.148438 L 1313.75 1332.351562 L 1315.078125 1332.148438 L 1313.75 1332.148438 L 1316.917969 1332.148438 L 1314.773438 1330 C 1314.054688 1330.613281 1313.699219 1331.6875 1313.75 1332.148438 L 1316.917969 1332.148438 L 1314.769531 1330 L 1316.613281 1331.839844 L 1316.613281 1329.078125 C 1316.40625 1329.027344 1315.4375 1329.234375 1314.769531 1330 L 1316.613281 1331.839844 L 1316.613281 1329.078125 L 572.097656 1329.078125 L 572.097656 1329.640625 L 572.199219 1329.078125 L 572.097656 1329.078125 L 572.097656 1329.640625 L 572.199219 1329.078125 L 572.046875 1328.976562 L 571.585938 1328.617188 L 571.484375 1328.464844 L 571.125 1328.617188 L 571.535156 1328.566406 L 571.484375 1328.464844 L 571.125 1328.617188 L 571.535156 1328.566406 L 431.539062 373.433594 L 430.210938 373.636719 L 431.539062 373.636719 L 431.539062 373.433594 L 430.210938 373.636719 L 431.539062 373.636719 L 428.472656 373.636719 L 430.566406 375.734375 C 431.285156 375.070312 431.539062 374.046875 431.539062 373.636719 L 428.472656 373.636719 L 430.566406 375.734375 L 428.625 373.789062 L 428.625 376.65625 C 428.933594 376.65625 429.902344 376.398438 430.566406 375.734375 L 428.625 373.789062 L 428.625 376.65625 L 1166.800781 376.65625 L 1166.800781 375.886719 L 1166.644531 376.65625 L 1166.800781 376.65625 L 1166.800781 375.886719 L 1166.644531 376.65625 L 1167.207031 377.066406 L 1167.363281 377.320312 L 1167.820312 377.167969 L 1167.363281 377.21875 L 1167.363281 377.320312 L 1167.820312 377.167969 L 1167.363281 377.21875 L 1313.800781 1332.351562 L 1313.75 1332.351562 L 1339.058594 1328.464844 L 1192.621094 373.382812 C 1191.597656 366.835938 1188.222656 361.414062 1183.773438 357.578125 C 1179.324219 353.6875 1173.445312 351.078125 1166.800781 351.078125 L 428.625 351.078125 C 422.589844 351.027344 416.660156 353.433594 412.519531 357.628906 C 408.324219 361.769531 405.921875 367.652344 405.972656 373.636719 C 405.972656 374.8125 406.074219 376.042969 406.230469 377.167969 L 546.226562 1332.25 C 547.246094 1338.847656 550.621094 1344.269531 555.070312 1348.15625 C 559.570312 1352.046875 565.449219 1354.601562 572.097656 1354.652344 L 1316.613281 1354.652344 C 1322.59375 1354.652344 1328.523438 1352.351562 1332.71875 1348.15625 C 1336.960938 1344.015625 1339.363281 1338.132812 1339.3125 1332.148438 C 1339.3125 1330.972656 1339.210938 1329.691406 1339.058594 1328.464844 L 1326.429688 1330.410156 " fill-opacity="1" fill-rule="nonzero"/><path fill="#f2f1f9" d="M 624.199219 1228.414062 L 1231.582031 1228.414062 L 1108.917969 424.839844 L 505.832031 424.839844 L 624.199219 1228.414062 " fill-opacity="1" fill-rule="nonzero"/><path fill="#040505" d="M 624.199219 1228.414062 L 624.199219 1241.203125 L 1231.582031 1241.203125 C 1235.316406 1241.203125 1238.84375 1239.566406 1241.246094 1236.753906 C 1243.699219 1233.886719 1244.773438 1230.207031 1244.210938 1226.472656 L 1121.601562 422.894531 C 1120.628906 416.65625 1115.257812 412.050781 1108.917969 412.050781 L 505.832031 412.050781 C 502.152344 412.050781 498.625 413.6875 496.167969 416.5 C 493.765625 419.316406 492.691406 423.050781 493.203125 426.730469 L 611.570312 1230.257812 C 612.492188 1236.546875 617.910156 1241.203125 624.199219 1241.203125 L 624.199219 1228.414062 L 636.878906 1226.574219 L 520.660156 437.628906 L 1097.976562 437.628906 L 1216.652344 1215.628906 L 624.199219 1215.628906 L 624.199219 1228.414062 L 636.878906 1226.574219 L 624.199219 1228.414062 " fill-opacity="1" fill-rule="nonzero"/><path fill="#88b9d2" d="M 791.652344 345.25 C 774.78125 345.25 759.082031 331.59375 756.578125 314.761719 C 754.070312 297.933594 765.679688 284.226562 782.5 284.226562 C 799.375 284.226562 815.070312 297.933594 817.578125 314.761719 C 820.132812 331.59375 808.527344 345.25 791.652344 345.25 Z M 978.332031 309.699219 L 905.878906 309.699219 L 897.851562 256.296875 C 896.878906 249.957031 891 244.867188 884.660156 244.867188 L 675.074219 244.867188 C 668.734375 244.867188 664.390625 249.957031 665.359375 256.296875 L 673.285156 309.699219 L 600.832031 309.699219 C 594.542969 309.699219 590.148438 314.816406 591.117188 321.105469 L 608.042969 435.480469 L 1008.855469 435.480469 L 991.523438 321.105469 C 990.550781 314.816406 984.671875 309.699219 978.332031 309.699219 " fill-opacity="1" fill-rule="nonzero"/><path fill="#040505" d="M 791.652344 345.25 L 791.652344 332.460938 C 786.695312 332.511719 781.375 330.363281 777.132812 326.679688 C 772.835938 322.949219 769.921875 317.933594 769.207031 312.871094 C 769.105469 311.898438 769.003906 311.03125 769.003906 310.210938 C 769.054688 306.066406 770.433594 303 772.632812 300.75 C 774.933594 298.546875 778 297.066406 782.5 297.015625 C 787.460938 297.015625 792.777344 299.113281 797.023438 302.84375 C 801.316406 306.527344 804.230469 311.59375 804.949219 316.65625 C 805.101562 317.578125 805.152344 318.496094 805.152344 319.316406 C 805.101562 323.460938 803.71875 326.527344 801.523438 328.726562 C 799.273438 330.925781 796.152344 332.460938 791.652344 332.460938 L 791.652344 358.035156 C 802.441406 358.089844 812.464844 353.945312 819.570312 346.835938 C 826.679688 339.777344 830.71875 329.851562 830.71875 319.316406 C 830.71875 317.21875 830.5625 315.019531 830.257812 312.871094 C 828.417969 301.054688 822.230469 290.875 813.792969 283.511719 C 805.355469 276.195312 794.414062 271.488281 782.5 271.4375 C 771.710938 271.4375 761.691406 275.582031 754.582031 282.691406 C 747.476562 289.75 743.4375 299.675781 743.4375 310.210938 C 743.4375 312.359375 743.589844 314.507812 743.949219 316.65625 C 745.738281 328.421875 751.925781 338.652344 760.363281 345.964844 C 768.796875 353.28125 779.738281 358.035156 791.652344 358.035156 Z M 978.332031 309.699219 L 978.332031 296.910156 L 916.921875 296.910156 L 910.480469 254.40625 C 909.457031 247.863281 906.136719 242.445312 901.636719 238.550781 C 897.1875 234.675781 891.308594 232.097656 884.660156 232.078125 L 675.074219 232.078125 C 669.09375 232.039062 663.109375 234.417969 658.96875 238.609375 C 654.777344 242.789062 652.425781 248.660156 652.425781 254.609375 C 652.425781 255.785156 652.527344 257.015625 652.730469 258.292969 L 652.679688 258.191406 L 658.457031 296.910156 L 600.832031 296.910156 C 594.851562 296.859375 588.867188 299.214844 584.726562 303.40625 C 580.535156 307.601562 578.183594 313.433594 578.183594 319.417969 C 578.183594 320.59375 578.285156 321.820312 578.4375 323.050781 L 578.4375 323 L 595.414062 437.371094 C 596.335938 443.613281 601.703125 448.265625 608.042969 448.265625 L 1008.855469 448.265625 C 1012.589844 448.265625 1016.117188 446.628906 1018.570312 443.816406 C 1020.976562 440.953125 1022.097656 437.269531 1021.484375 433.585938 L 1004.152344 319.214844 C 1003.128906 312.667969 999.753906 307.246094 995.308594 303.355469 C 990.859375 299.46875 985.03125 296.910156 978.332031 296.910156 L 978.332031 322.488281 L 978.332031 321.71875 L 978.179688 322.4375 L 978.332031 322.488281 L 978.332031 321.71875 L 978.179688 322.4375 L 978.742188 322.84375 L 978.894531 323.101562 L 979.355469 322.949219 L 978.894531 323.050781 L 978.894531 323.101562 L 979.355469 322.949219 L 978.894531 323.050781 L 993.976562 422.691406 L 619.085938 422.691406 L 603.75 319.214844 L 603.75 319.164062 L 602.0625 319.417969 L 603.75 319.417969 L 603.75 319.164062 L 602.0625 319.417969 L 603.75 319.417969 L 600.679688 319.417969 L 602.777344 321.515625 C 603.492188 320.851562 603.800781 319.878906 603.75 319.417969 L 600.679688 319.417969 L 602.777344 321.515625 L 600.832031 319.570312 L 600.832031 322.488281 C 601.089844 322.488281 602.113281 322.230469 602.777344 321.515625 L 600.832031 319.570312 L 600.832031 322.488281 L 673.285156 322.488281 C 676.96875 322.488281 680.546875 320.851562 683 318.039062 C 685.402344 315.222656 686.476562 311.4375 685.914062 307.808594 L 677.988281 254.40625 L 677.988281 254.355469 L 676.25 254.609375 L 677.988281 254.609375 L 677.988281 254.355469 L 676.25 254.609375 L 677.988281 254.609375 L 674.921875 254.609375 L 677.019531 256.707031 C 677.734375 256.042969 678.039062 255.019531 677.988281 254.609375 L 674.921875 254.609375 L 677.019531 256.707031 L 675.074219 254.765625 L 675.074219 257.628906 C 675.332031 257.679688 676.355469 257.421875 677.019531 256.707031 L 675.074219 254.765625 L 675.074219 257.628906 L 884.660156 257.628906 L 884.660156 256.914062 L 884.507812 257.628906 L 884.660156 257.628906 L 884.660156 256.914062 L 884.507812 257.628906 L 885.070312 258.039062 L 885.222656 258.242188 L 885.222656 258.292969 L 885.683594 258.140625 L 885.222656 258.191406 L 885.222656 258.292969 L 885.683594 258.140625 L 885.222656 258.191406 L 893.25 311.59375 C 894.171875 317.832031 899.539062 322.488281 905.878906 322.488281 L 978.332031 322.488281 L 978.332031 309.699219 " fill-opacity="1" fill-rule="nonzero"/><path fill="#040505" d="M 1062.902344 510.976562 L 584.625 510.976562 C 577.519531 510.976562 571.84375 516.707031 571.84375 523.765625 C 571.84375 530.824219 577.519531 536.550781 584.625 536.550781 L 1062.902344 536.550781 C 1069.957031 536.550781 1075.683594 530.824219 1075.683594 523.765625 C 1075.683594 516.707031 1069.957031 510.976562 1062.902344 510.976562 " fill-opacity="1" fill-rule="nonzero"/><path fill="#040505" d="M 1075.222656 592.203125 L 596.589844 592.203125 C 589.585938 592.203125 583.808594 597.984375 583.808594 604.992188 C 583.808594 612.101562 589.585938 617.78125 596.589844 617.78125 L 1075.222656 617.78125 C 1082.28125 617.78125 1088.007812 612.101562 1088.007812 604.992188 C 1088.007812 597.984375 1082.28125 592.203125 1075.222656 592.203125 " fill-opacity="1" fill-rule="nonzero"/><path fill="#040505" d="M 1087.597656 673.480469 L 608.65625 673.480469 C 601.550781 673.480469 595.875 679.210938 595.875 686.269531 C 595.875 693.328125 601.550781 699.058594 608.65625 699.058594 L 1087.597656 699.058594 C 1094.652344 699.058594 1100.378906 693.328125 1100.378906 686.269531 C 1100.378906 679.210938 1094.652344 673.480469 1087.597656 673.480469 " fill-opacity="1" fill-rule="nonzero"/><path fill="#040505" d="M 1099.972656 754.710938 L 620.621094 754.710938 C 613.617188 754.710938 607.839844 760.488281 607.839844 767.496094 C 607.839844 774.605469 613.617188 780.285156 620.621094 780.285156 L 1099.972656 780.285156 C 1107.027344 780.285156 1112.753906 774.605469 1112.753906 767.496094 C 1112.753906 760.488281 1107.027344 754.710938 1099.972656 754.710938 " fill-opacity="1" fill-rule="nonzero"/><path fill="#040505" d="M 1112.292969 835.988281 L 632.6875 835.988281 C 625.582031 835.988281 619.90625 841.714844 619.90625 848.777344 C 619.90625 855.835938 625.582031 861.5625 632.6875 861.5625 L 1112.292969 861.5625 C 1119.351562 861.5625 1125.078125 855.835938 1125.078125 848.777344 C 1125.078125 841.714844 1119.351562 835.988281 1112.292969 835.988281 " fill-opacity="1" fill-rule="nonzero"/><path fill="#040505" d="M 1124.667969 917.265625 L 644.652344 917.265625 C 637.597656 917.265625 631.871094 922.996094 631.871094 930.054688 C 631.871094 937.113281 637.597656 942.839844 644.652344 942.839844 L 1124.667969 942.839844 C 1131.722656 942.839844 1137.449219 937.113281 1137.449219 930.054688 C 1137.449219 922.996094 1131.722656 917.265625 1124.667969 917.265625 " fill-opacity="1" fill-rule="nonzero"/><path fill="#040505" d="M 1137.042969 998.492188 L 656.667969 998.492188 C 649.664062 998.492188 643.886719 1004.222656 643.886719 1011.28125 C 643.886719 1018.339844 649.664062 1024.070312 656.667969 1024.070312 L 1137.042969 1024.070312 C 1144.097656 1024.070312 1149.824219 1018.339844 1149.824219 1011.28125 C 1149.824219 1004.222656 1144.097656 998.492188 1137.042969 998.492188 " fill-opacity="1" fill-rule="nonzero"/><path fill="#040505" d="M 1149.363281 1079.769531 L 668.683594 1079.769531 C 661.628906 1079.769531 655.902344 1085.449219 655.902344 1092.558594 C 655.902344 1099.617188 661.628906 1105.347656 668.683594 1105.347656 L 1149.363281 1105.347656 C 1156.421875 1105.347656 1162.148438 1099.617188 1162.148438 1092.558594 C 1162.148438 1085.449219 1156.421875 1079.769531 1149.363281 1079.769531 " fill-opacity="1" fill-rule="nonzero"/><path fill="#d78021" d="M 1016.882812 760.746094 C 1013.765625 764.886719 1014.53125 770.71875 1018.671875 773.890625 C 1022.765625 777.011719 1028.644531 776.242188 1031.761719 772.101562 L 1048.738281 749.902344 C 1051.859375 745.757812 1051.089844 739.875 1046.949219 736.753906 C 1042.859375 733.585938 1036.980469 734.402344 1033.859375 738.496094 L 1016.882812 760.746094 " fill-opacity="1" fill-rule="nonzero"/><path fill="#040505" d="M 1016.882812 760.746094 L 1006.761719 752.96875 C 1003.691406 756.960938 1002.210938 761.769531 1002.210938 766.421875 C 1002.160156 773.019531 1005.226562 779.722656 1010.902344 784.019531 C 1014.890625 787.089844 1019.695312 788.621094 1024.347656 788.570312 C 1030.945312 788.621094 1037.59375 785.554688 1041.9375 779.875 L 1058.914062 757.625 C 1061.929688 753.636719 1063.464844 748.878906 1063.464844 744.222656 C 1063.464844 737.574219 1060.394531 730.925781 1054.722656 726.578125 C 1050.734375 723.507812 1045.925781 722.023438 1041.273438 722.023438 C 1034.675781 722.023438 1028.03125 725.042969 1023.683594 730.769531 L 1006.761719 752.96875 L 1016.882812 760.746094 L 1027.058594 768.519531 L 1043.984375 746.269531 L 1041.273438 744.171875 L 1041.273438 747.601562 C 1042.296875 747.601562 1043.371094 747.140625 1043.984375 746.269531 L 1041.273438 744.171875 L 1041.273438 747.601562 L 1041.273438 744.222656 L 1039.226562 746.933594 C 1039.789062 747.34375 1040.609375 747.601562 1041.273438 747.601562 L 1041.273438 744.222656 L 1039.226562 746.933594 L 1039.226562 746.882812 L 1041.273438 744.222656 L 1037.898438 744.222656 C 1037.847656 745.195312 1038.359375 746.21875 1039.226562 746.882812 L 1041.273438 744.222656 L 1037.898438 744.222656 L 1041.273438 744.222656 L 1038.5625 742.125 C 1038.101562 742.6875 1037.847656 743.507812 1037.898438 744.222656 L 1041.273438 744.222656 L 1038.5625 742.125 L 1021.640625 764.378906 L 1021.640625 764.324219 L 1024.347656 766.421875 L 1024.347656 762.996094 C 1023.378906 762.996094 1022.253906 763.507812 1021.640625 764.324219 L 1024.347656 766.421875 L 1024.347656 762.996094 L 1024.347656 766.421875 L 1026.394531 763.710938 C 1025.832031 763.25 1025.015625 762.996094 1024.347656 762.996094 L 1024.347656 766.421875 L 1026.394531 763.710938 L 1024.347656 766.421875 L 1027.773438 766.421875 C 1027.773438 765.453125 1027.261719 764.324219 1026.394531 763.710938 L 1024.347656 766.421875 L 1027.773438 766.421875 L 1024.347656 766.421875 L 1027.058594 768.519531 C 1027.519531 767.90625 1027.773438 767.140625 1027.773438 766.421875 L 1024.347656 766.421875 L 1027.058594 768.519531 L 1016.882812 760.746094 " fill-opacity="1" fill-rule="nonzero"/><path fill="#1a2846" d="M 1057.890625 668.980469 L 1109.378906 708.265625 L 1389.269531 340.953125 L 1337.730469 301.667969 L 1057.890625 668.980469 " fill-opacity="1" fill-rule="nonzero"/><path fill="#040505" d="M 1057.890625 668.980469 L 1050.117188 679.160156 L 1101.609375 718.445312 C 1107.28125 722.742188 1115.257812 721.667969 1119.554688 716.039062 L 1399.445312 348.726562 C 1401.488281 346.015625 1402.410156 342.589844 1401.949219 339.214844 C 1401.488281 335.886719 1399.699219 332.820312 1397.039062 330.773438 L 1345.5 291.488281 C 1339.875 287.191406 1331.902344 288.265625 1327.605469 293.894531 L 1047.714844 661.207031 C 1043.421875 666.832031 1044.496094 674.863281 1050.117188 679.160156 L 1057.890625 668.980469 L 1068.015625 676.703125 L 1340.183594 319.570312 L 1371.375 343.355469 L 1106.976562 690.363281 L 1065.613281 658.800781 L 1057.890625 668.980469 L 1068.015625 676.703125 L 1057.890625 668.980469 " fill-opacity="1" fill-rule="nonzero"/><path fill="#1a2846" d="M 1024.195312 740.386719 L 1049.503906 759.671875 L 1109.378906 708.265625 L 1057.890625 668.980469 L 1024.195312 740.386719 " fill-opacity="1" fill-rule="nonzero"/><path fill="#040505" d="M 1024.195312 740.386719 L 1016.476562 750.566406 L 1041.734375 769.800781 C 1046.488281 773.480469 1053.238281 773.277344 1057.789062 769.339844 L 1117.714844 717.984375 C 1120.628906 715.425781 1122.265625 711.792969 1122.164062 707.90625 C 1122.058594 704.019531 1120.21875 700.4375 1117.152344 698.085938 L 1065.613281 658.800781 C 1062.542969 656.449219 1058.605469 655.632812 1054.824219 656.550781 C 1051.039062 657.472656 1047.972656 660.03125 1046.285156 663.507812 L 1012.640625 734.914062 C 1010.082031 740.386719 1011.667969 746.882812 1016.476562 750.566406 L 1024.195312 740.386719 L 1035.800781 745.859375 L 1062.699219 688.726562 L 1089.082031 708.878906 L 1048.996094 743.199219 L 1031.96875 730.207031 L 1024.195312 740.386719 L 1035.800781 745.859375 L 1024.195312 740.386719 " fill-opacity="1" fill-rule="nonzero"/><path fill="#fbcb41" d="M 1224.066406 557.730469 L 1262.15625 507.753906 L 1211.027344 468.011719 L 1172.933594 517.984375 L 1224.066406 557.730469 " fill-opacity="1" fill-rule="nonzero"/><path fill="#040505" d="M 1224.066406 557.730469 L 1234.242188 565.503906 L 1272.332031 515.53125 C 1276.578125 509.953125 1275.554688 501.976562 1269.980469 497.679688 L 1218.851562 457.882812 C 1216.140625 455.835938 1212.714844 454.863281 1209.339844 455.324219 C 1205.964844 455.785156 1202.898438 457.523438 1200.851562 460.234375 L 1162.761719 510.210938 C 1158.515625 515.785156 1159.539062 523.765625 1165.0625 528.0625 L 1216.242188 567.855469 C 1218.953125 569.953125 1222.328125 570.875 1225.753906 570.414062 C 1229.128906 569.953125 1232.195312 568.214844 1234.242188 565.503906 L 1224.066406 557.730469 L 1231.941406 547.652344 L 1190.78125 515.632812 L 1213.328125 486.015625 L 1244.3125 510.109375 L 1213.941406 550.003906 L 1224.066406 557.730469 L 1231.941406 547.652344 L 1224.066406 557.730469 " fill-opacity="1" fill-rule="nonzero"/></svg>