<svg xmlns="http://www.w3.org/2000/svg" xmlns:xlink="http://www.w3.org/1999/xlink" width="2380" zoomAndPan="magnify" viewBox="0 0 1784.88 1784.99993" height="2380" preserveAspectRatio="xMidYMid meet" version="1.0"><defs><clipPath id="0ddd8af8d4"><path d="M 149 277.027344 L 1635 277.027344 L 1635 1507.695312 L 149 1507.695312 Z M 149 277.027344 " clip-rule="nonzero"/></clipPath></defs><path fill="#ffdbac" d="M 1622.984375 1359.933594 L 1487.425781 503.179688 C 1487.425781 503.179688 1413.046875 446.597656 1223.976562 446.597656 C 1196.746094 446.597656 1170.695312 448.722656 1145.589844 452.140625 C 1149.125 427.03125 1150.894531 400.742188 1150.777344 373.160156 C 1150.65625 346.28125 1148.773438 318.109375 1145.234375 288.875 L 639.078125 288.875 C 635.542969 318.109375 633.65625 346.28125 633.539062 373.160156 C 633.421875 400.742188 635.191406 427.03125 638.726562 452.140625 C 613.617188 448.722656 587.570312 446.597656 560.339844 446.597656 C 371.265625 446.597656 296.886719 503.179688 296.886719 503.179688 L 161.332031 1359.933594 C 190.683594 1385.160156 206.359375 1416.28125 203.175781 1455.296875 C 203.175781 1455.296875 290.050781 1388.933594 508.828125 1388.933594 C 727.605469 1388.933594 892.15625 1496.4375 892.15625 1496.4375 C 892.15625 1496.4375 1056.710938 1388.933594 1275.488281 1388.933594 C 1494.265625 1388.933594 1581.136719 1455.296875 1581.136719 1455.296875 C 1577.957031 1416.28125 1593.632812 1385.160156 1622.984375 1359.933594 Z M 1622.984375 1359.933594 " fill-opacity="1" fill-rule="nonzero"/><path fill="#f1c27d" d="M 892.15625 1401.074219 L 892.15625 1496.4375 C 892.15625 1496.4375 727.605469 1388.933594 508.828125 1388.933594 C 290.050781 1388.933594 203.175781 1455.296875 203.175781 1455.296875 C 206.359375 1416.28125 190.683594 1385.160156 161.332031 1359.933594 C 161.332031 1359.933594 253.511719 1293.566406 485.605469 1293.566406 C 717.703125 1293.566406 892.15625 1401.074219 892.15625 1401.074219 Z M 892.15625 1401.074219 " fill-opacity="1" fill-rule="nonzero"/><path fill="#e0ac69" d="M 1622.984375 1359.933594 C 1593.632812 1385.160156 1577.957031 1416.28125 1581.136719 1455.296875 C 1581.136719 1455.296875 1494.265625 1388.933594 1275.488281 1388.933594 C 1056.710938 1388.933594 892.15625 1496.4375 892.15625 1496.4375 L 892.15625 1401.074219 C 892.15625 1401.074219 1066.613281 1293.566406 1298.710938 1293.566406 C 1530.804688 1293.566406 1622.984375 1359.933594 1622.984375 1359.933594 Z M 1622.984375 1359.933594 " fill-opacity="1" fill-rule="nonzero"/><path fill="#f1c27d" d="M 1149.363281 1031.636719 C 1146.414062 987.078125 1138.28125 945.9375 1124.726562 908.335938 C 1112.113281 872.734375 1094.667969 840.199219 1072.625 810.847656 C 1200.636719 769.589844 1336.902344 780.082031 1479.765625 831.242188 L 1434.382812 583.339844 C 1331.832031 543.496094 1220.324219 534.183594 1117.652344 556.933594 C 1131.089844 524.753906 1140.402344 489.859375 1145.589844 452.140625 C 1170.695312 448.722656 1196.746094 446.597656 1223.976562 446.597656 C 1413.046875 446.597656 1487.425781 503.179688 1487.425781 503.179688 L 1622.984375 1359.933594 C 1622.984375 1359.933594 1530.804688 1293.566406 1298.710938 1293.566406 C 1066.613281 1293.566406 892.15625 1401.074219 892.15625 1401.074219 L 892.15625 1158.003906 L 1145.234375 1158.003906 C 1148.773438 1128.769531 1150.65625 1100.597656 1150.777344 1073.71875 C 1150.777344 1059.339844 1150.421875 1045.3125 1149.363281 1031.636719 Z M 1149.363281 1031.636719 " fill-opacity="1" fill-rule="nonzero"/><path fill="#20bab6" d="M 1434.382812 583.339844 L 1479.765625 831.242188 C 1336.902344 780.082031 1200.636719 769.589844 1072.625 810.847656 C 1047.753906 777.722656 1016.988281 748.609375 980.210938 723.382812 C 1043.746094 679.882812 1089.597656 624.480469 1117.652344 556.933594 C 1220.324219 534.183594 1331.832031 543.496094 1434.382812 583.339844 Z M 1434.382812 583.339844 " fill-opacity="1" fill-rule="nonzero"/><path fill="#e7f2f1" d="M 1150.777344 373.160156 C 1150.894531 400.742188 1149.125 427.03125 1145.589844 452.140625 C 1140.402344 489.859375 1131.089844 524.753906 1117.652344 556.933594 C 1089.597656 624.480469 1043.746094 679.882812 980.210938 723.382812 C 1016.988281 748.609375 1047.753906 777.722656 1072.625 810.847656 C 1094.667969 840.199219 1112.113281 872.734375 1124.726562 908.335938 C 1138.28125 945.9375 1146.414062 987.078125 1149.359375 1031.636719 C 1031.015625 997.6875 945.320312 827.941406 890.742188 827.941406 C 836.285156 827.941406 732.554688 989.320312 635.777344 1020.320312 C 639.316406 980.007812 647.214844 942.753906 659.589844 908.335938 C 672.203125 872.734375 689.648438 840.199219 711.691406 810.847656 C 736.5625 777.722656 767.328125 748.609375 804.105469 723.382812 C 740.570312 679.882812 694.71875 624.480469 666.664062 556.933594 C 653.226562 524.753906 643.914062 489.859375 638.726562 452.140625 C 635.191406 427.03125 633.421875 400.742188 633.539062 373.160156 Z M 890.742188 712.066406 C 966.890625 683.066406 1020.878906 636.503906 1046.222656 567.074219 C 941.074219 596.425781 837.464844 596.425781 735.382812 567.074219 C 760.726562 636.503906 814.714844 683.066406 890.742188 712.066406 Z M 890.742188 712.066406 " fill-opacity="1" fill-rule="nonzero"/><path fill="#f69552" d="M 1149.363281 1031.636719 C 1150.421875 1045.3125 1150.777344 1059.339844 1150.777344 1073.71875 L 633.539062 1073.71875 C 633.539062 1055.332031 634.246094 1037.53125 635.78125 1020.320312 C 732.554688 989.320312 836.285156 827.941406 890.742188 827.941406 C 945.320312 827.941406 1031.015625 997.6875 1149.363281 1031.636719 Z M 1149.363281 1031.636719 " fill-opacity="1" fill-rule="nonzero"/><path fill="#ad6a6a" d="M 1150.777344 373.160156 L 633.539062 373.160156 C 633.65625 346.28125 635.542969 318.109375 639.078125 288.875 L 1145.234375 288.875 C 1148.773438 318.109375 1150.65625 346.28125 1150.777344 373.160156 Z M 1150.777344 373.160156 " fill-opacity="1" fill-rule="nonzero"/><path fill="#ad6a6a" d="M 633.539062 1073.71875 L 1150.777344 1073.71875 C 1150.65625 1100.597656 1148.773438 1128.769531 1145.234375 1158.003906 L 639.078125 1158.003906 C 637.785156 1147.160156 636.722656 1136.550781 635.898438 1126.058594 C 634.363281 1108.140625 633.65625 1090.695312 633.539062 1073.71875 Z M 633.539062 1073.71875 " fill-opacity="1" fill-rule="nonzero"/><path fill="#f69552" d="M 1046.21875 567.074219 C 1020.878906 636.503906 966.890625 683.066406 890.742188 712.066406 C 814.714844 683.066406 760.726562 636.503906 735.382812 567.074219 C 837.464844 596.425781 941.074219 596.425781 1046.21875 567.074219 Z M 1046.21875 567.074219 " fill-opacity="1" fill-rule="nonzero"/><path fill="#3a322b" d="M 890.789062 723.875 C 892.214844 723.875 893.644531 723.628906 894.988281 723.109375 C 977.300781 691.695312 1031.886719 640.546875 1057.242188 571.09375 C 1058.75 566.929688 1057.820312 562.285156 1054.8125 559.042969 C 1051.808594 555.804688 1047.234375 554.496094 1042.992188 555.707031 C 940.511719 584.390625 838.125 584.414062 738.660156 555.730469 C 734.417969 554.507812 729.808594 555.78125 726.777344 559.007812 C 723.75 562.25 722.804688 566.929688 724.328125 571.09375 C 749.671875 640.558594 804.269531 691.695312 886.582031 723.109375 C 887.949219 723.628906 889.363281 723.875 890.789062 723.875 Z M 755.707031 584.636719 C 844.394531 606.265625 935.101562 606.183594 1025.96875 584.460938 C 1000.734375 635.832031 956.28125 673.613281 890.800781 699.453125 C 825.382812 673.648438 780.953125 635.914062 755.707031 584.636719 Z M 755.707031 584.636719 " fill-opacity="1" fill-rule="nonzero"/><g clip-path="url(#0ddd8af8d4)"><path fill="#3a322b" d="M 1634.652344 1361.078125 C 1634.6875 1360.699219 1634.640625 1360.347656 1634.640625 1359.96875 C 1634.640625 1359.320312 1634.722656 1358.683594 1634.628906 1358.035156 L 1499.074219 501.378906 C 1498.589844 498.371094 1496.988281 495.683594 1494.570312 493.832031 C 1491.398438 491.429688 1414.804688 434.847656 1224 434.847656 C 1202.582031 434.847656 1180.714844 436.167969 1158.816406 438.664062 C 1161.113281 418.023438 1162.257812 396.628906 1162.246094 374.492188 C 1162.304688 374.019531 1162.515625 373.609375 1162.515625 373.125 C 1162.515625 372.640625 1162.304688 372.226562 1162.246094 371.769531 C 1162.128906 344.691406 1160.5 316.660156 1156.941406 287.390625 C 1156.222656 281.472656 1151.199219 277.027344 1145.234375 277.027344 L 639.078125 277.027344 C 633.128906 277.027344 628.09375 281.472656 627.375 287.390625 C 623.816406 316.660156 622.1875 344.691406 622.070312 371.769531 C 622.011719 372.238281 621.800781 372.640625 621.800781 373.125 C 621.800781 373.609375 622.023438 374.019531 622.070312 374.492188 C 622.058594 396.628906 623.203125 418.023438 625.5 438.664062 C 603.597656 436.179688 581.734375 434.847656 560.316406 434.847656 C 369.5 434.847656 292.914062 491.429688 289.746094 493.832031 C 287.328125 495.671875 285.714844 498.371094 285.242188 501.378906 L 149.6875 1358.035156 C 149.578125 1358.683594 149.664062 1359.320312 149.675781 1359.96875 C 149.675781 1360.34375 149.625 1360.699219 149.664062 1361.078125 C 149.804688 1362.421875 150.132812 1363.71875 150.722656 1364.929688 C 150.851562 1365.214844 151.078125 1365.4375 151.230469 1365.710938 C 151.773438 1366.640625 152.421875 1367.488281 153.199219 1368.242188 C 153.375 1368.421875 153.457031 1368.65625 153.644531 1368.820312 C 181.796875 1393.011719 194.148438 1420.996094 191.449219 1454.367188 C 191.070312 1459 193.464844 1463.410156 197.53125 1465.636719 C 201.597656 1467.863281 206.621094 1467.523438 210.320312 1464.714844 C 211.167969 1464.070312 297.679688 1400.753906 508.863281 1400.753906 C 721.355469 1400.753906 884.09375 1505.304688 885.710938 1506.351562 C 886.085938 1506.597656 886.523438 1506.707031 886.914062 1506.90625 C 887.300781 1507.105469 887.679688 1507.292969 888.089844 1507.449219 C 889.410156 1507.929688 890.765625 1508.261719 892.144531 1508.261719 C 893.535156 1508.261719 894.894531 1507.929688 896.210938 1507.4375 C 896.625 1507.28125 897.003906 1507.09375 897.390625 1506.894531 C 897.792969 1506.695312 898.214844 1506.585938 898.605469 1506.339844 C 900.21875 1505.277344 1062.640625 1400.742188 1275.453125 1400.742188 C 1486.636719 1400.742188 1573.144531 1464.058594 1573.972656 1464.679688 C 1577.683594 1467.511719 1582.695312 1467.898438 1586.773438 1465.660156 C 1590.851562 1463.433594 1593.242188 1459 1592.867188 1454.355469 C 1590.167969 1420.984375 1602.519531 1393 1630.667969 1368.808594 C 1630.835938 1368.667969 1630.90625 1368.457031 1631.058594 1368.304688 C 1631.90625 1367.488281 1632.613281 1366.582031 1633.179688 1365.578125 C 1633.296875 1365.355469 1633.488281 1365.179688 1633.59375 1364.953125 C 1634.171875 1363.753906 1634.511719 1362.433594 1634.652344 1361.078125 Z M 1224 458.433594 C 1383.214844 458.433594 1459.621094 499.597656 1476.59375 510.171875 L 1607.519531 1337.546875 C 1567.394531 1317.660156 1471.054688 1281.765625 1298.746094 1281.765625 C 1105.996094 1281.765625 954.476562 1353.601562 903.945312 1380.832031 L 903.945312 1169.769531 L 1145.234375 1169.769531 C 1151.1875 1169.769531 1156.222656 1165.324219 1156.941406 1159.40625 C 1160.5 1130.136719 1162.128906 1102.105469 1162.246094 1075.027344 C 1162.304688 1074.558594 1162.515625 1074.15625 1162.515625 1073.671875 C 1162.515625 1073.191406 1162.292969 1072.777344 1162.246094 1072.304688 C 1162.246094 1058.644531 1161.84375 1045.230469 1160.972656 1032.132812 C 1161.007812 1031.152344 1161.007812 1030.222656 1160.820312 1029.292969 C 1157.929688 989.140625 1150.835938 951.714844 1139.671875 916.988281 C 1276.667969 885.585938 1397.230469 896.109375 1498.058594 948.554688 C 1499.792969 949.464844 1501.65625 949.886719 1503.480469 949.886719 C 1507.738281 949.886719 1511.851562 947.578125 1513.949219 943.546875 C 1516.953125 937.769531 1514.703125 930.648438 1508.925781 927.644531 C 1402.332031 872.167969 1275.464844 861.160156 1131.773438 894.613281 C 1121.117188 867.042969 1107.644531 841.34375 1091.414062 817.507812 C 1208.5 783.664062 1334.402344 791.714844 1475.769531 842.320312 C 1477.066406 842.78125 1478.410156 843.019531 1479.742188 843.019531 C 1482.488281 843.019531 1485.210938 842.050781 1487.367188 840.222656 C 1490.574219 837.5 1492.082031 833.257812 1491.328125 829.121094 L 1446.007812 581.253906 C 1445.261719 577.222656 1442.492188 573.875 1438.675781 572.390625 C 1341.320312 534.503906 1234.679688 523.679688 1135.984375 541.292969 C 1144.730469 516.585938 1151.199219 490.367188 1155.597656 462.808594 C 1178.59375 459.953125 1201.554688 458.433594 1224 458.433594 Z M 810.777344 733.128906 C 810.847656 733.082031 810.882812 733.023438 810.953125 732.976562 C 811.152344 732.835938 811.320312 732.648438 811.507812 732.492188 C 812.203125 731.925781 812.828125 731.300781 813.371094 730.605469 C 813.59375 730.324219 813.78125 730.042969 813.972656 729.734375 C 814.464844 728.96875 814.855469 728.15625 815.160156 727.292969 C 815.234375 727.105469 815.363281 726.964844 815.410156 726.777344 C 815.433594 726.71875 815.410156 726.644531 815.421875 726.585938 C 815.714844 725.5625 815.90625 724.5 815.90625 723.40625 C 815.90625 723.109375 815.820312 722.828125 815.796875 722.53125 C 815.773438 722.226562 815.738281 721.941406 815.691406 721.636719 C 815.492188 720.304688 815.136719 719.007812 814.5 717.828125 C 814.464844 717.769531 814.429688 717.734375 814.394531 717.675781 C 813.769531 716.542969 812.921875 715.566406 811.945312 714.695312 C 811.730469 714.503906 811.53125 714.304688 811.308594 714.128906 C 811.117188 713.984375 810.976562 713.796875 810.777344 713.65625 C 703.511719 640.242188 648.367188 529.808594 645.761719 384.890625 L 1138.539062 384.890625 C 1135.949219 529.796875 1080.804688 640.242188 973.527344 713.65625 C 970.320312 715.859375 968.398438 719.492188 968.398438 723.382812 C 968.398438 727.269531 970.320312 730.914062 973.527344 733.105469 C 1068.78125 798.292969 1123.085938 892.574219 1135.875 1014.34375 C 1079.839844 991.347656 1030.378906 937.203125 989.945312 892.820312 C 950.882812 849.949219 920.023438 816.082031 890.777344 816.082031 C 859.929688 816.082031 823.332031 852.234375 776.992188 898.019531 C 737.199219 937.320312 692.761719 981.230469 650.101562 1001.800781 C 665.261719 886.171875 718.859375 796.042969 810.777344 733.128906 Z M 1000.519531 723.40625 C 1057.03125 681.523438 1098.757812 629.371094 1125.714844 567.367188 C 1222.078125 547.101562 1327.507812 555.769531 1424.023438 592.015625 L 1464.523438 813.5 C 1324.429688 766.820312 1194.117188 761.445312 1076.679688 797.304688 C 1055.238281 769.96875 1029.964844 745.234375 1000.519531 723.40625 Z M 647.332031 1028.65625 C 698.003906 1009.15625 748.632812 959.210938 793.566406 914.816406 C 830.957031 877.875 869.621094 839.679688 890.789062 839.679688 C 909.628906 839.679688 940.179688 873.21875 972.535156 908.722656 C 1017.09375 957.621094 1072.140625 1017.890625 1137.84375 1040.253906 C 1138.246094 1047.351562 1138.421875 1054.601562 1138.550781 1061.875 L 645.773438 1061.875 C 645.976562 1050.605469 646.496094 1039.523438 647.332031 1028.65625 Z M 645.738281 1085.460938 L 1138.574219 1085.460938 C 1138.175781 1105.136719 1136.984375 1125.316406 1134.722656 1146.191406 L 892.277344 1146.191406 C 892.242188 1146.191406 892.203125 1146.167969 892.15625 1146.167969 C 892.109375 1146.167969 892.085938 1146.191406 892.039062 1146.191406 L 649.59375 1146.191406 C 647.332031 1125.316406 646.140625 1105.136719 645.738281 1085.460938 Z M 1134.734375 300.605469 C 1136.996094 321.480469 1138.175781 341.664062 1138.585938 361.335938 L 645.75 361.335938 C 646.140625 341.664062 647.332031 321.480469 649.59375 300.605469 Z M 307.734375 510.125 C 324.601562 499.503906 400.230469 458.421875 560.328125 458.421875 C 582.769531 458.421875 605.734375 459.953125 628.707031 462.796875 C 633.117188 490.378906 639.585938 516.597656 648.332031 541.328125 C 548.679688 523.820312 433.777344 535.292969 336.53125 573.144531 C 330.460938 575.5 327.453125 582.324219 329.8125 588.398438 C 331.625 593.066406 336.082031 595.917969 340.796875 595.917969 C 342.222656 595.917969 343.671875 595.671875 345.0625 595.117188 C 443.195312 556.957031 559.914062 546.738281 658.613281 567.390625 C 680.359375 617.394531 711.890625 660.871094 752.875 697.824219 C 609.375 665.03125 460.324219 669.734375 318.449219 712.125 C 312.210938 713.984375 308.664062 720.550781 310.527344 726.789062 C 312.390625 733.023438 318.953125 736.558594 325.191406 734.710938 C 473.101562 690.515625 629.011719 688.429688 777.699219 728.273438 C 750.882812 748.902344 727.535156 771.9375 707.636719 797.316406 C 584.855469 759.828125 447.992188 767.386719 300.601562 820.136719 C 294.472656 822.328125 291.277344 829.085938 293.480469 835.203125 C 295.203125 840.023438 299.742188 843.015625 304.574219 843.015625 C 305.894531 843.015625 307.238281 842.792969 308.546875 842.320312 C 449.902344 791.726562 575.828125 783.652344 692.902344 817.507812 C 676.671875 841.34375 663.210938 867.042969 652.542969 894.613281 C 508.851562 861.183594 381.996094 872.179688 275.386719 927.644531 C 269.613281 930.648438 267.359375 937.757812 270.367188 943.546875 C 272.464844 947.578125 276.578125 949.886719 280.832031 949.886719 C 282.660156 949.886719 284.523438 949.464844 286.257812 948.554688 C 387.097656 896.109375 507.636719 885.570312 644.644531 916.988281 C 634.519531 948.484375 627.667969 982.152344 624.355469 1018.105469 C 624.226562 1018.777344 624.132812 1019.425781 624.121094 1020.121094 C 622.625 1036.988281 622.046875 1054.457031 622.058594 1072.292969 C 622 1072.765625 621.789062 1073.179688 621.789062 1073.660156 C 621.789062 1074.144531 622 1074.558594 622.058594 1075.015625 C 622.117188 1086.945312 622.484375 1099.089844 623.214844 1111.441406 C 475.964844 1082.019531 334.867188 1101.222656 234.109375 1165.136719 C 228.613281 1168.625 226.988281 1175.910156 230.464844 1181.414062 C 232.707031 1184.953125 236.523438 1186.886719 240.425781 1186.886719 C 242.582031 1186.886719 244.777344 1186.296875 246.734375 1185.058594 C 343.851562 1123.429688 481.339844 1105.726562 625.042969 1135.867188 C 625.761719 1143.671875 626.398438 1151.425781 627.363281 1159.394531 C 628.082031 1165.3125 633.105469 1169.757812 639.066406 1169.757812 L 880.359375 1169.757812 L 880.359375 1380.796875 C 829.824219 1353.566406 678.308594 1281.730469 485.558594 1281.730469 C 313.25 1281.730469 216.910156 1317.636719 176.785156 1337.511719 Z M 214.882812 1434.363281 C 212.429688 1407.507812 200.925781 1383.355469 180.734375 1362.171875 C 212.597656 1345.375 307.25 1305.332031 485.570312 1305.332031 C 688.777344 1305.332031 849.0625 1390.085938 880.371094 1407.828125 L 880.371094 1475.679688 C 831.371094 1447.847656 689.199219 1377.179688 508.863281 1377.179688 C 342.742188 1377.179688 251.339844 1414.710938 214.882812 1434.363281 Z M 1569.445312 1434.363281 C 1532.972656 1414.710938 1441.574219 1377.179688 1275.464844 1377.179688 C 1095.128906 1377.179688 952.957031 1447.847656 903.957031 1475.679688 L 903.957031 1407.828125 C 935.21875 1390.085938 1095.257812 1305.332031 1298.757812 1305.332031 C 1477.125 1305.332031 1571.765625 1345.386719 1603.605469 1362.171875 C 1583.402344 1383.355469 1571.898438 1407.496094 1569.445312 1434.363281 Z M 1569.445312 1434.363281 " fill-opacity="1" fill-rule="nonzero"/></g><path fill="#3a322b" d="M 1234.667969 997.015625 C 1228.195312 997.734375 1223.527344 1003.558594 1224.246094 1010.03125 C 1224.964844 1016.5 1230.707031 1021.132812 1237.261719 1020.460938 C 1336.535156 1009.511719 1430.988281 1027.734375 1517.945312 1074.652344 C 1519.726562 1075.617188 1521.632812 1076.066406 1523.53125 1076.066406 C 1527.730469 1076.066406 1531.785156 1073.828125 1533.917969 1069.878906 C 1537.003906 1064.160156 1534.871094 1056.992188 1529.144531 1053.917969 C 1437.894531 1004.679688 1338.820312 985.570312 1234.667969 997.015625 Z M 1234.667969 997.015625 " fill-opacity="1" fill-rule="nonzero"/><path fill="#3a322b" d="M 1319.890625 1110.097656 C 1319.480469 1116.605469 1324.40625 1122.203125 1330.902344 1122.628906 C 1409.675781 1127.6875 1481.144531 1149.28125 1537.570312 1185.082031 C 1539.527344 1186.320312 1541.71875 1186.910156 1543.878906 1186.910156 C 1547.78125 1186.910156 1551.597656 1184.976562 1553.839844 1181.4375 C 1557.328125 1175.933594 1555.699219 1168.648438 1550.195312 1165.160156 C 1490.433594 1127.238281 1415.121094 1104.40625 1332.398438 1099.101562 C 1325.890625 1098.933594 1320.304688 1103.601562 1319.890625 1110.097656 Z M 1319.890625 1110.097656 " fill-opacity="1" fill-rule="nonzero"/><path fill="#3a322b" d="M 260.796875 1076.054688 C 262.679688 1076.054688 264.601562 1075.605469 266.382812 1074.640625 C 353.339844 1027.734375 447.78125 1009.488281 547.066406 1020.449219 C 553.597656 1021.144531 559.359375 1016.488281 560.078125 1010.019531 C 560.800781 1003.546875 556.132812 997.722656 549.660156 997.003906 C 445.539062 985.546875 346.441406 1004.644531 255.195312 1053.882812 C 249.46875 1056.96875 247.332031 1064.125 250.421875 1069.84375 C 252.542969 1073.816406 256.597656 1076.054688 260.796875 1076.054688 Z M 260.796875 1076.054688 " fill-opacity="1" fill-rule="nonzero"/></svg>