<svg xmlns="http://www.w3.org/2000/svg" xmlns:xlink="http://www.w3.org/1999/xlink" width="2380" zoomAndPan="magnify" viewBox="0 0 1784.88 1784.99993" height="2380" preserveAspectRatio="xMidYMid meet" version="1.0"><path fill="#181822" d="M 605.320312 731.335938 C 602.542969 723.269531 597.09375 716.078125 589.328125 711.207031 L 483.535156 645.722656 C 467.738281 635.945312 446.980469 641.179688 437.710938 657.277344 L 423.402344 682.132812 L 596.121094 789.054688 L 601.144531 767.921875 C 601.882812 764.820312 603.160156 761.878906 604.398438 758.945312 C 608.199219 749.960938 608.351562 740.128906 605.320312 731.335938 Z M 605.320312 731.335938 " fill-opacity="1" fill-rule="nonzero"/><path fill="#181822" d="M 1117.085938 714.125 C 1119.230469 705.871094 1124.109375 698.273438 1131.472656 692.820312 L 1251.179688 612.839844 C 1267.003906 602.269531 1288.472656 607.285156 1297.96875 623.777344 L 1311.675781 647.585938 L 1130.730469 770.957031 L 1124.085938 750.28125 C 1123.109375 747.246094 1121.609375 744.414062 1120.148438 741.578125 C 1115.664062 732.921875 1114.75 723.128906 1117.085938 714.125 Z M 1117.085938 714.125 " fill-opacity="1" fill-rule="nonzero"/><path fill="#181822" d="M 1000.066406 698.765625 L 1121.769531 712.019531 L 1153.757812 727.980469 L 1121.769531 774.25 L 1045.191406 763.242188 L 976.105469 763.242188 L 918.53125 766.023438 L 869.183594 795.632812 C 862.605469 787.738281 800.644531 785.382812 770.488281 784.117188 C 716.203125 765.390625 592.199219 787.078125 577.859375 805.503906 L 602.257812 763.242188 C 608.066406 753.183594 608.84375 741.554688 605.320312 731.335938 C 677.554688 711.207031 777.984375 711.207031 862.964844 727.980469 C 904.359375 703.816406 952.417969 693.578125 1000.066406 698.765625 Z M 1000.066406 698.765625 " fill-opacity="1" fill-rule="nonzero"/><path fill="#38b6ff" d="M 433.519531 678.660156 C 434.613281 676.765625 437.0625 676.15625 438.917969 677.320312 L 592.617188 773.714844 C 600.382812 778.585938 605.835938 785.777344 608.609375 793.84375 C 612.132812 804.066406 611.359375 815.691406 605.546875 825.75 L 405.378906 1172.457031 C 400.679688 1180.59375 393.488281 1186.355469 385.34375 1189.367188 C 374.507812 1193.371094 361.984375 1192.503906 351.402344 1185.867188 L 199.855469 1090.824219 C 198.09375 1089.71875 197.523438 1087.417969 198.5625 1085.621094 Z M 433.519531 678.660156 " fill-opacity="1" fill-rule="nonzero"/><path fill="#38b6ff" d="M 1294.628906 623.332031 C 1293.378906 621.53125 1290.890625 621.128906 1289.140625 622.441406 L 1143.980469 731.277344 C 1136.648438 736.777344 1131.816406 744.398438 1129.71875 752.667969 C 1127.058594 763.148438 1128.800781 774.667969 1135.425781 784.210938 L 1386.894531 1153.855469 C 1389.753906 1157.972656 1393.261719 1161.355469 1397.1875 1163.972656 C 1400.613281 1166.257812 1404.359375 1167.957031 1408.265625 1169.042969 C 1419.394531 1172.132812 1431.800781 1170.226562 1441.800781 1162.730469 L 1584.921875 1055.421875 C 1586.582031 1054.175781 1586.960938 1051.835938 1585.777344 1050.128906 Z M 1294.628906 623.332031 " fill-opacity="1" fill-rule="nonzero"/><path fill="#181822" d="M 427.820312 675.371094 C 430.78125 670.246094 437.402344 668.601562 442.414062 671.746094 L 596.113281 768.140625 C 603.324219 772.664062 608.832031 778.902344 612.425781 786.003906 C 684.679688 767.234375 782.058594 767.53125 865.097656 783.5625 C 907.21875 759.582031 955.847656 749.480469 1004.070312 754.734375 L 1125.769531 767.988281 C 1129.382812 768.382812 1131.992188 771.628906 1131.597656 775.242188 C 1131.203125 778.855469 1127.957031 781.464844 1124.34375 781.070312 L 1002.640625 767.816406 C 956.390625 762.78125 909.75 772.71875 869.570312 796.175781 L 643.96875 927.875 C 608.933594 948.328125 596.101562 992.675781 614.804688 1028.675781 C 634.511719 1066.609375 681.585938 1080.871094 719.03125 1060.261719 L 947.148438 934.691406 C 953.367188 931.269531 960.945312 931.449219 966.996094 935.164062 L 1304.59375 1142.460938 C 1345.128906 1167.351562 1358.65625 1219.882812 1335.179688 1261.257812 L 1331.8125 1267.195312 C 1316.722656 1293.796875 1288.1875 1308.894531 1258.753906 1307.550781 C 1277.703125 1334.160156 1277.921875 1370.96875 1257.085938 1398.109375 C 1234.46875 1427.558594 1194.511719 1435.949219 1162.453125 1419.789062 C 1171.773438 1444.78125 1167.65625 1474.007812 1148.980469 1495.796875 C 1121.335938 1528.046875 1072.609375 1531.335938 1040.882812 1503.09375 L 1033 1496.078125 C 1039.355469 1520.066406 1034.414062 1546.578125 1017.636719 1567.078125 C 990.792969 1599.894531 942.964844 1605.96875 908.765625 1580.917969 L 868.160156 1551.175781 C 865.230469 1549.03125 864.589844 1544.914062 866.738281 1541.980469 C 868.886719 1539.050781 873.003906 1538.414062 875.933594 1540.558594 L 916.539062 1570.300781 C 945.097656 1591.222656 985.035156 1586.144531 1007.453125 1558.746094 C 1029.515625 1531.78125 1027.070312 1492.363281 1001.839844 1468.332031 L 969.871094 1437.890625 C 967.242188 1435.382812 967.140625 1431.21875 969.644531 1428.585938 C 972.152344 1425.957031 976.316406 1425.855469 978.949219 1428.359375 L 1010.832031 1458.722656 L 1049.632812 1493.265625 C 1075.859375 1516.609375 1116.140625 1513.890625 1138.988281 1487.230469 C 1162.105469 1460.265625 1158.242188 1419.5 1130.472656 1397.347656 L 1024.382812 1312.726562 C 1021.546875 1310.464844 1021.078125 1306.324219 1023.34375 1303.484375 C 1025.613281 1300.640625 1029.75 1300.175781 1032.589844 1302.441406 L 1138.601562 1386.996094 L 1158.949219 1402.199219 C 1186.574219 1422.835938 1225.648438 1417.4375 1246.648438 1390.09375 C 1267.425781 1363.03125 1262.894531 1324.347656 1236.421875 1302.824219 L 1113.179688 1202.601562 C 1110.359375 1200.308594 1109.933594 1196.167969 1112.226562 1193.347656 C 1114.519531 1190.527344 1118.664062 1190.101562 1121.484375 1192.394531 L 1243.71875 1291.792969 C 1273.332031 1300.445312 1305.089844 1287.625 1320.371094 1260.703125 L 1323.734375 1254.765625 C 1343.710938 1219.558594 1332.203125 1174.855469 1297.710938 1153.675781 L 960.109375 946.378906 C 958.09375 945.136719 955.566406 945.078125 953.492188 946.222656 L 725.375 1071.789062 C 681.457031 1095.96875 626.242188 1079.234375 603.125 1034.742188 C 581.191406 992.515625 596.238281 940.503906 637.335938 916.511719 L 847.566406 793.78125 C 769.820312 780.832031 682.164062 781.675781 616.601562 798.515625 C 618.40625 808.652344 616.78125 819.453125 611.246094 829.042969 L 411.074219 1175.746094 C 407.628906 1181.714844 403.027344 1186.601562 397.726562 1190.277344 L 451.035156 1229.328125 C 453.964844 1231.472656 454.605469 1235.59375 452.457031 1238.523438 C 450.308594 1241.457031 446.191406 1242.089844 443.261719 1239.945312 L 384.167969 1196.660156 C 372.347656 1199.984375 359.183594 1198.511719 347.90625 1191.441406 L 196.359375 1096.398438 L 199.855469 1090.824219 L 199.875 1090.792969 M 199.855469 1090.824219 L 196.359375 1096.398438 C 191.601562 1093.414062 190.054688 1087.195312 192.863281 1082.332031 L 427.820312 675.371094 M 437.808594 684.390625 L 205.570312 1086.640625 L 354.898438 1180.292969 C 363.675781 1185.796875 374.054688 1186.523438 383.0625 1183.195312 C 389.824219 1180.695312 395.777344 1175.921875 399.679688 1169.167969 L 599.851562 822.460938 C 604.667969 814.113281 605.316406 804.480469 602.390625 795.984375 C 600.082031 789.292969 595.566406 783.332031 589.121094 779.289062 Z M 437.808594 684.390625 " fill-opacity="1" fill-rule="evenodd"/><path fill="#181822" d="M 1300.035156 619.578125 C 1296.660156 614.71875 1289.925781 613.628906 1285.191406 617.179688 L 1140.039062 726.015625 C 1131.457031 732.445312 1125.796875 741.375 1123.339844 751.046875 C 1120.234375 763.289062 1122.257812 776.769531 1130 787.933594 C 1130.007812 787.945312 1130.011719 787.953125 1130.019531 787.964844 L 1381.472656 1157.582031 L 1381.488281 1157.605469 C 1382.824219 1159.53125 1384.28125 1161.316406 1385.84375 1162.96875 L 1372.023438 1171.03125 C 1359.976562 1178.058594 1345.199219 1178.535156 1332.722656 1172.300781 L 1326.835938 1184.070312 C 1343.285156 1192.292969 1362.769531 1191.664062 1378.652344 1182.398438 L 1397.144531 1171.613281 C 1400.128906 1173.222656 1403.273438 1174.484375 1406.503906 1175.382812 C 1419.511719 1178.996094 1434.046875 1176.769531 1445.746094 1167.996094 L 1588.867188 1060.6875 C 1593.351562 1057.324219 1594.382812 1051.015625 1591.199219 1046.40625 C 1591.195312 1046.394531 1591.1875 1046.386719 1591.179688 1046.375 L 1300.046875 619.601562 Z M 1290.8125 629.410156 L 1578.894531 1051.714844 L 1437.851562 1157.46875 C 1429.5625 1163.6875 1419.277344 1165.273438 1410.027344 1162.703125 C 1406.78125 1161.800781 1403.675781 1160.394531 1400.835938 1158.5 C 1397.597656 1156.339844 1394.691406 1153.542969 1392.316406 1150.125 C 1392.308594 1150.117188 1392.308594 1150.113281 1392.300781 1150.101562 L 1140.847656 780.484375 L 1140.832031 780.460938 C 1135.332031 772.539062 1133.886719 762.992188 1136.097656 754.285156 C 1137.835938 747.421875 1141.84375 741.105469 1147.929688 736.542969 Z M 1290.8125 629.410156 " fill-opacity="1" fill-rule="evenodd"/><path fill="#181822" d="M 509.84375 1170.691406 C 538.238281 1144.089844 582.816406 1145.546875 609.414062 1173.9375 C 636.007812 1202.328125 634.554688 1246.902344 606.167969 1273.503906 L 523.769531 1350.695312 C 495.378906 1377.292969 450.800781 1375.839844 424.207031 1347.449219 C 397.605469 1319.058594 399.0625 1274.480469 427.449219 1247.882812 Z M 599.808594 1182.933594 C 578.179688 1159.847656 541.929688 1158.664062 518.84375 1180.292969 L 436.449219 1257.488281 C 413.363281 1279.117188 412.179688 1315.363281 433.808594 1338.453125 C 455.4375 1361.539062 491.683594 1362.722656 514.773438 1341.089844 L 597.167969 1263.898438 C 620.257812 1242.273438 621.4375 1206.019531 599.808594 1182.933594 Z M 599.808594 1182.933594 " fill-opacity="1" fill-rule="evenodd"/><path fill="#181822" d="M 645.753906 1217.753906 C 673.765625 1190.761719 718.363281 1191.589844 745.355469 1219.605469 C 772.347656 1247.621094 771.519531 1292.210938 743.507812 1319.207031 L 613.363281 1444.605469 C 585.347656 1471.601562 540.753906 1470.773438 513.761719 1442.757812 C 486.765625 1414.746094 487.59375 1370.148438 515.609375 1343.15625 Z M 735.878906 1228.738281 C 713.925781 1205.953125 677.664062 1205.285156 654.882812 1227.234375 L 524.742188 1352.636719 C 501.960938 1374.585938 501.285156 1410.847656 523.238281 1433.628906 C 545.1875 1456.40625 581.449219 1457.082031 604.230469 1435.132812 L 734.375 1309.730469 C 757.15625 1287.78125 757.832031 1251.515625 735.878906 1228.738281 Z M 735.878906 1228.738281 " fill-opacity="1" fill-rule="evenodd"/><path fill="#181822" d="M 759.21875 1285.207031 C 787.234375 1258.210938 831.828125 1259.039062 858.820312 1287.054688 C 885.8125 1315.066406 884.984375 1359.660156 856.972656 1386.65625 L 718.039062 1520.523438 C 690.023438 1547.515625 645.429688 1546.6875 618.4375 1518.671875 C 591.445312 1490.660156 592.269531 1446.066406 620.285156 1419.070312 Z M 849.34375 1296.183594 C 827.390625 1273.402344 791.132812 1272.730469 768.347656 1294.679688 L 629.417969 1428.550781 C 606.636719 1450.5 605.960938 1486.761719 627.914062 1509.542969 C 649.863281 1532.324219 686.128906 1532.996094 708.90625 1511.046875 L 847.839844 1377.175781 C 870.621094 1355.226562 871.292969 1318.964844 849.34375 1296.183594 Z M 849.34375 1296.183594 " fill-opacity="1" fill-rule="evenodd"/><path fill="#181822" d="M 818.253906 1407.78125 C 846.265625 1380.785156 890.859375 1381.613281 917.851562 1409.628906 C 944.847656 1437.640625 944.019531 1482.238281 916.003906 1509.230469 L 858.324219 1564.808594 C 830.308594 1591.800781 785.71875 1590.972656 758.726562 1562.957031 C 731.730469 1534.941406 732.558594 1490.351562 760.570312 1463.355469 Z M 908.375 1418.757812 C 886.425781 1395.980469 850.164062 1395.304688 827.382812 1417.253906 L 769.703125 1472.832031 C 746.921875 1494.785156 746.25 1531.046875 768.199219 1553.824219 C 790.152344 1576.609375 826.410156 1577.28125 849.195312 1555.328125 L 906.871094 1499.753906 C 929.65625 1477.800781 930.328125 1441.539062 908.375 1418.757812 Z M 908.375 1418.757812 " fill-opacity="1" fill-rule="evenodd"/><path fill="#181822" d="M 1132.375 485.554688 C 1132.375 408.023438 1194.144531 344.96875 1270.582031 344.96875 C 1347.023438 344.96875 1408.792969 408.023438 1408.792969 485.554688 L 1408.792969 491.035156 C 1408.792969 500.382812 1402.757812 508.722656 1393.792969 511.449219 L 1379.296875 515.855469 C 1308.371094 537.414062 1232.800781 537.414062 1161.871094 515.855469 L 1147.375 511.449219 C 1138.410156 508.722656 1132.375 500.382812 1132.375 491.035156 Z M 1270.582031 358.128906 C 1201.632812 358.128906 1145.535156 415.066406 1145.535156 485.554688 L 1145.535156 491.035156 C 1145.535156 494.71875 1147.902344 497.859375 1151.199219 498.859375 L 1165.695312 503.261719 C 1234.128906 524.066406 1307.039062 524.066406 1375.472656 503.261719 L 1389.96875 498.859375 C 1393.265625 497.859375 1395.632812 494.71875 1395.632812 491.035156 L 1395.632812 485.554688 C 1395.632812 415.066406 1339.535156 358.128906 1270.582031 358.128906 Z M 1270.582031 358.128906 " fill-opacity="1" fill-rule="evenodd"/><path fill="#181822" d="M 1270.582031 208.386719 C 1237.535156 208.386719 1210.742188 235.175781 1210.742188 268.226562 C 1210.742188 301.273438 1237.535156 328.0625 1270.582031 328.0625 C 1303.628906 328.0625 1330.421875 301.273438 1330.421875 268.226562 C 1330.421875 235.175781 1303.628906 208.386719 1270.582031 208.386719 Z M 1197.585938 268.226562 C 1197.585938 227.910156 1230.265625 195.226562 1270.582031 195.226562 C 1310.898438 195.226562 1343.578125 227.910156 1343.578125 268.226562 C 1343.578125 308.539062 1310.898438 341.222656 1270.582031 341.222656 C 1230.265625 341.222656 1197.585938 308.539062 1197.585938 268.226562 Z M 1197.585938 268.226562 " fill-opacity="1" fill-rule="evenodd"/><path fill="#181822" d="M 375.699219 485.554688 C 375.699219 408.023438 437.46875 344.96875 513.90625 344.96875 C 590.347656 344.96875 652.117188 408.023438 652.117188 485.554688 L 652.117188 491.035156 C 652.117188 500.382812 646.082031 508.722656 637.117188 511.449219 L 622.621094 515.855469 C 551.695312 537.414062 476.125 537.414062 405.191406 515.855469 L 390.699219 511.449219 C 381.734375 508.722656 375.699219 500.382812 375.699219 491.035156 Z M 513.90625 358.128906 C 444.953125 358.128906 388.859375 415.066406 388.859375 485.554688 L 388.859375 491.035156 C 388.859375 494.71875 391.226562 497.859375 394.523438 498.859375 L 409.019531 503.261719 C 477.453125 524.066406 550.363281 524.066406 618.796875 503.261719 L 633.292969 498.859375 C 636.589844 497.859375 638.957031 494.71875 638.957031 491.035156 L 638.957031 485.554688 C 638.957031 415.066406 582.859375 358.128906 513.90625 358.128906 Z M 513.90625 358.128906 " fill-opacity="1" fill-rule="evenodd"/><path fill="#181822" d="M 513.90625 208.386719 C 480.859375 208.386719 454.070312 235.175781 454.070312 268.226562 C 454.070312 301.273438 480.859375 328.0625 513.90625 328.0625 C 546.953125 328.0625 573.746094 301.273438 573.746094 268.226562 C 573.746094 235.175781 546.953125 208.386719 513.90625 208.386719 Z M 440.910156 268.226562 C 440.910156 227.910156 473.59375 195.226562 513.90625 195.226562 C 554.226562 195.226562 586.90625 227.910156 586.90625 268.226562 C 586.90625 308.539062 554.226562 341.222656 513.90625 341.222656 C 473.59375 341.222656 440.910156 308.539062 440.910156 268.226562 Z M 440.910156 268.226562 " fill-opacity="1" fill-rule="evenodd"/><path fill="#181822" d="M 736.378906 616.34375 C 736.378906 524.796875 810.304688 450.585938 901.492188 450.585938 C 992.679688 450.585938 1066.601562 524.796875 1066.601562 616.34375 L 1066.601562 623.121094 C 1066.601562 631.175781 1061.328125 638.28125 1053.640625 640.582031 L 1035.457031 646.035156 C 948.050781 672.230469 854.929688 672.230469 767.523438 646.035156 L 749.34375 640.582031 C 741.652344 638.28125 736.378906 631.175781 736.378906 623.121094 Z M 736.378906 616.34375 " fill-opacity="1" fill-rule="nonzero"/><path fill="#181822" d="M 729.800781 616.34375 C 729.800781 521.1875 806.644531 444.003906 901.492188 444.003906 C 996.339844 444.003906 1073.179688 521.1875 1073.179688 616.34375 L 1073.179688 623.121094 C 1073.179688 634.070312 1066.019531 643.742188 1055.53125 646.886719 L 1037.351562 652.335938 C 948.710938 678.902344 854.273438 678.902344 765.632812 652.335938 L 747.453125 646.886719 C 736.964844 643.742188 729.800781 634.070312 729.800781 623.121094 Z M 901.492188 457.164062 C 813.960938 457.164062 742.960938 528.40625 742.960938 616.34375 L 742.960938 623.121094 C 742.960938 628.285156 746.339844 632.816406 751.230469 634.28125 L 769.414062 639.730469 C 855.585938 665.558594 947.398438 665.558594 1033.570312 639.730469 L 1051.753906 634.28125 C 1056.644531 632.816406 1060.019531 628.285156 1060.019531 623.121094 L 1060.019531 616.34375 C 1060.019531 528.40625 989.019531 457.164062 901.492188 457.164062 Z M 901.492188 457.164062 " fill-opacity="1" fill-rule="evenodd"/><path fill="#181822" d="M 987.832031 323.296875 C 987.832031 369.308594 950.53125 406.609375 904.519531 406.609375 C 858.507812 406.609375 821.207031 369.308594 821.207031 323.296875 C 821.207031 277.285156 858.507812 239.984375 904.519531 239.984375 C 950.53125 239.984375 987.832031 277.285156 987.832031 323.296875 Z M 987.832031 323.296875 " fill-opacity="1" fill-rule="nonzero"/><path fill="#181822" d="M 904.519531 246.5625 C 862.144531 246.5625 827.785156 280.917969 827.785156 323.296875 C 827.785156 365.671875 862.144531 400.027344 904.519531 400.027344 C 946.902344 400.027344 981.253906 365.671875 981.253906 323.296875 C 981.253906 280.917969 946.902344 246.5625 904.519531 246.5625 Z M 814.628906 323.296875 C 814.628906 273.648438 854.875 233.402344 904.519531 233.402344 C 954.167969 233.402344 994.414062 273.648438 994.414062 323.296875 C 994.414062 372.941406 954.167969 413.1875 904.519531 413.1875 C 854.875 413.1875 814.628906 372.941406 814.628906 323.296875 Z M 814.628906 323.296875 " fill-opacity="1" fill-rule="evenodd"/><path fill="#38b6ff" d="M 757.585938 600.5 C 757.585938 507.664062 831.511719 432.410156 922.695312 432.410156 C 1013.886719 432.410156 1087.808594 507.664062 1087.808594 600.5 L 1087.808594 607.371094 C 1087.808594 615.542969 1082.535156 622.746094 1074.847656 625.082031 L 1056.664062 630.609375 C 969.257812 657.175781 876.136719 657.175781 788.730469 630.609375 L 770.550781 625.082031 C 762.859375 622.746094 757.585938 615.542969 757.585938 607.371094 Z M 757.585938 600.5 " fill-opacity="1" fill-rule="nonzero"/><path fill="#38b6ff" d="M 757.585938 600.5 C 757.585938 507.664062 831.511719 432.410156 922.695312 432.410156 C 1013.886719 432.410156 1087.808594 507.664062 1087.808594 600.5 L 1087.808594 607.371094 C 1087.808594 615.542969 1082.535156 622.746094 1074.847656 625.082031 L 1056.664062 630.609375 C 969.257812 657.175781 876.136719 657.175781 788.730469 630.609375 L 770.550781 625.082031 C 762.859375 622.746094 757.585938 615.542969 757.585938 607.371094 Z M 757.585938 600.5 " fill-opacity="1" fill-rule="nonzero"/><path fill="#181822" d="M 751.007812 600.5 C 751.007812 504.140625 827.765625 425.828125 922.695312 425.828125 C 1017.628906 425.828125 1094.386719 504.140625 1094.386719 600.5 L 1094.386719 607.371094 C 1094.386719 618.371094 1087.289062 628.179688 1076.757812 631.378906 L 1058.578125 636.90625 C 969.925781 663.847656 875.472656 663.847656 786.816406 636.90625 L 768.632812 631.378906 C 758.109375 628.179688 751.007812 618.371094 751.007812 607.371094 Z M 922.695312 438.988281 C 835.253906 438.988281 764.167969 511.1875 764.167969 600.5 L 764.167969 607.371094 C 764.167969 612.714844 767.605469 617.308594 772.460938 618.789062 L 790.644531 624.316406 C 876.804688 650.503906 968.59375 650.503906 1054.753906 624.316406 L 1072.933594 618.789062 C 1077.789062 617.308594 1081.226562 612.714844 1081.226562 607.371094 L 1081.226562 600.5 C 1081.226562 511.1875 1010.144531 438.988281 922.695312 438.988281 Z M 922.695312 438.988281 " fill-opacity="1" fill-rule="evenodd"/><path fill="#38b6ff" d="M 1006.011719 308.148438 C 1006.011719 354.160156 968.714844 391.460938 922.699219 391.460938 C 876.6875 391.460938 839.386719 354.160156 839.386719 308.148438 C 839.386719 262.136719 876.6875 224.835938 922.699219 224.835938 C 968.714844 224.835938 1006.011719 262.136719 1006.011719 308.148438 Z M 1006.011719 308.148438 " fill-opacity="1" fill-rule="nonzero"/><path fill="#38b6ff" d="M 1006.011719 308.148438 C 1006.011719 354.160156 968.714844 391.460938 922.699219 391.460938 C 876.6875 391.460938 839.386719 354.160156 839.386719 308.148438 C 839.386719 262.136719 876.6875 224.835938 922.699219 224.835938 C 968.714844 224.835938 1006.011719 262.136719 1006.011719 308.148438 Z M 1006.011719 308.148438 " fill-opacity="1" fill-rule="nonzero"/><path fill="#181822" d="M 922.699219 231.414062 C 880.320312 231.414062 845.96875 265.769531 845.96875 308.148438 C 845.96875 350.527344 880.320312 384.878906 922.699219 384.878906 C 965.078125 384.878906 999.429688 350.527344 999.429688 308.148438 C 999.429688 265.769531 965.078125 231.414062 922.699219 231.414062 Z M 832.808594 308.148438 C 832.808594 258.503906 873.050781 218.257812 922.699219 218.257812 C 972.34375 218.257812 1012.589844 258.503906 1012.589844 308.148438 C 1012.589844 357.792969 972.34375 398.039062 922.699219 398.039062 C 873.050781 398.039062 832.808594 357.792969 832.808594 308.148438 Z M 832.808594 308.148438 " fill-opacity="1" fill-rule="evenodd"/></svg>